<svg xmlns="http://www.w3.org/2000/svg" xmlns:xlink="http://www.w3.org/1999/xlink" viewBox="0 0 1000 287.01"><defs><symbol id="New_Symbol" data-name="New Symbol" viewBox="0 0 21.55 21.55"><circle cx="10.77" cy="10.77" r="10.77" style="fill:#e33e2b;opacity:0.8"/></symbol><symbol id="New_Symbol_1" data-name="New Symbol 1" viewBox="0 0 21.55 21.55"><circle cx="10.77" cy="10.77" r="10.77" style="fill:#f0b501;opacity:0.8"/></symbol><symbol id="New_Symbol_2" data-name="New Symbol 2" viewBox="0 0 21.55 21.55"><circle cx="10.77" cy="10.77" r="10.77" style="fill:#2ba24c;opacity:0.8"/></symbol><symbol id="New_Symbol_3" data-name="New Symbol 3" viewBox="0 0 21.55 21.55"><circle cx="10.77" cy="10.77" r="10.77" style="fill:#3b7ded;opacity:0.8"/></symbol></defs><g id="Layer_2" data-name="Layer 2"><g id="final"><g id="FINAL-2" data-name="FINAL"><path d="M45.82,67.53H87.43v36.18H47v122.4H0V60.3q0-27.73,16.43-44T62.71,0A86.27,86.27,0,0,1,82.76,2.26,48.82,48.82,0,0,1,98.58,8.74L86.22,42.81a32.12,32.12,0,0,0-19-5.73q-21.4,0-21.41,23.52Z" style="fill:#013250"/><path d="M404,218.27A48.3,48.3,0,0,1,387,226,85.32,85.32,0,0,1,366,228.52q-29.25,0-44.92-14.77T305.4,170.33V28h47V67.53h40.1v36.18h-40.1v66q0,10.26,5.12,15.83t14.78,5.58a32.36,32.36,0,0,0,19.29-6Z" style="fill:#013250"/><path d="M456.59,217.82a79.56,79.56,0,0,1-31.81-29.7q-11.46-19-11.46-43.11t11.46-43.11a79.63,79.63,0,0,1,31.81-29.7q20.34-10.7,46-10.7t45.83,10.7A79.91,79.91,0,0,1,580,101.9q11.46,19,11.46,43.11T580,188.12a79.84,79.84,0,0,1-31.65,29.7q-20.21,10.69-45.83,10.7T456.59,217.82Zm75.67-40.1q11.6-12.21,11.6-32.71t-11.6-32.71q-11.61-12.21-29.7-12.21T472.72,112.3Q461,124.51,461,145t11.76,32.71q11.75,12.21,29.84,12.21T532.26,177.72Z" style="fill:#013250"/><path d="M790.17,63.91V199q0,44.61-23.21,66.32T699.13,287a170,170,0,0,1-44.62-5.73q-21.1-5.73-35-16.58l18.69-33.77q10.24,8.44,25.93,13.42a103.23,103.23,0,0,0,31.35,5q24.42,0,36-11T743.14,205v-6.93q-18.39,20.2-51.25,20.2a86,86,0,0,1-40.85-9.8,74.59,74.59,0,0,1-29.39-27.58q-10.86-17.79-10.86-41t10.86-41A74.66,74.66,0,0,1,651,71.3a86.07,86.07,0,0,1,40.85-9.8q35.28,0,53.66,23.22V63.91ZM731.84,168.68q11.89-11,11.9-28.79t-11.9-28.8q-11.93-11-30.6-11t-30.75,11q-12.07,11-12.06,28.8t12.06,28.79q12,11,30.75,11T731.84,168.68Z" style="fill:#013250"/><path d="M865.09,217.82a79.56,79.56,0,0,1-31.81-29.7q-11.46-19-11.45-43.11t11.45-43.11a79.63,79.63,0,0,1,31.81-29.7q20.35-10.7,46-10.7t45.82,10.7a79.91,79.91,0,0,1,31.65,29.7Q1000,120.89,1000,145t-11.46,43.11a79.84,79.84,0,0,1-31.65,29.7q-20.21,10.69-45.82,10.7T865.09,217.82Zm75.67-40.1q11.6-12.21,11.61-32.71T940.76,112.3q-11.61-12.21-29.69-12.21T881.22,112.3Q869.46,124.51,869.46,145t11.76,32.71q11.76,12.21,29.85,12.21T940.76,177.72Z" style="fill:#013250"/><use width="21.55" height="21.55" transform="translate(254.83 183.33) scale(0.71 0.71)" xlink:href="#New_Symbol"/><use width="21.55" height="21.55" transform="translate(248.07 156.52) scale(0.71 0.71)" xlink:href="#New_Symbol"/><use width="21.55" height="21.55" transform="translate(257.16 134.86) scale(0.71 0.71)" xlink:href="#New_Symbol"/><use width="21.55" height="21.55" transform="translate(263.99 111.65) scale(0.71 0.71)" xlink:href="#New_Symbol"/><use width="21.55" height="21.55" transform="translate(244.74 92.36) scale(0.71 0.71)" xlink:href="#New_Symbol"/><use width="21.55" height="21.55" transform="translate(221.21 82.58) scale(0.71 0.71)" xlink:href="#New_Symbol"/><use width="21.55" height="21.55" transform="translate(190.83 71.16) scale(0.71 0.71)" xlink:href="#New_Symbol"/><use width="21.55" height="21.55" transform="translate(168.37 67.67) scale(0.71 0.71)" xlink:href="#New_Symbol"/><use width="21.55" height="21.55" transform="translate(146.43 72.98) scale(0.71 0.71)" xlink:href="#New_Symbol"/><use width="21.55" height="21.55" transform="translate(131.68 88.41) scale(0.71 0.71)" xlink:href="#New_Symbol"/><use width="21.55" height="21.55" transform="translate(122.25 121.86) scale(0.71 0.71)" xlink:href="#New_Symbol"/><use width="21.55" height="21.55" transform="translate(113.74 149.52) scale(0.71 0.71)" xlink:href="#New_Symbol"/><use width="21.55" height="21.55" transform="translate(123.87 187.92) scale(0.71 0.71)" xlink:href="#New_Symbol"/><use width="21.55" height="21.55" transform="translate(151.66 208.67) scale(0.71 0.71)" xlink:href="#New_Symbol"/><use width="21.55" height="21.55" transform="translate(184.13 213.14) scale(0.71 0.71)" xlink:href="#New_Symbol"/><use width="21.55" height="21.55" transform="translate(229.43 211.55) scale(0.71 0.71)" xlink:href="#New_Symbol"/><use width="21.55" height="21.55" transform="translate(268.99 150.81) scale(0.71 0.71)" xlink:href="#New_Symbol"/><use width="21.55" height="21.55" transform="translate(236.18 98.22) scale(0.71 0.71)" xlink:href="#New_Symbol"/><use width="21.55" height="21.55" transform="translate(146.72 62.26) scale(0.71 0.71)" xlink:href="#New_Symbol"/><use width="21.55" height="21.55" transform="translate(114.52 94.74) scale(0.71 0.71)" xlink:href="#New_Symbol"/><use width="21.55" height="21.55" transform="translate(132.8 174.38) scale(0.71 0.71)" xlink:href="#New_Symbol"/><use width="21.55" height="21.55" transform="translate(145.86 198.67) scale(0.71 0.71)" xlink:href="#New_Symbol"/><use width="21.55" height="21.55" transform="translate(246.66 180.47) scale(0.71 0.71)" xlink:href="#New_Symbol_1"/><use width="21.55" height="21.55" transform="translate(262.78 157.19) scale(0.71 0.71)" xlink:href="#New_Symbol_1"/><use width="21.55" height="21.55" transform="translate(264.51 131.18) scale(0.71 0.71)" xlink:href="#New_Symbol_1"/><use width="21.55" height="21.55" transform="translate(258.26 115.19) scale(0.71 0.71)" xlink:href="#New_Symbol_1"/><use width="21.55" height="21.55" transform="translate(261.01 99.02) scale(0.71 0.71)" xlink:href="#New_Symbol_1"/><use width="21.55" height="21.55" transform="translate(226.46 96.46) scale(0.71 0.71)" xlink:href="#New_Symbol_1"/><use width="21.55" height="21.55" transform="translate(219.17 77.44) scale(0.71 0.71)" xlink:href="#New_Symbol_1"/><use width="21.55" height="21.55" transform="translate(200.19 59.79) scale(0.71 0.71)" xlink:href="#New_Symbol_1"/><use width="21.55" height="21.55" transform="translate(171.44 61.65) scale(0.71 0.71)" xlink:href="#New_Symbol_1"/><use width="21.55" height="21.55" transform="translate(133.04 71.71) scale(0.71 0.71)" xlink:href="#New_Symbol_1"/><use width="21.55" height="21.55" transform="translate(123.7 95.34) scale(0.71 0.71)" xlink:href="#New_Symbol_1"/><use width="21.55" height="21.55" transform="translate(108.11 110.71) scale(0.71 0.71)" xlink:href="#New_Symbol_1"/><use width="21.55" height="21.55" transform="translate(120.71 137.7) scale(0.71 0.71)" xlink:href="#New_Symbol_1"/><use width="21.55" height="21.55" transform="translate(118.27 164.91) scale(0.71 0.71)" xlink:href="#New_Symbol_1"/><use width="21.55" height="21.55" transform="translate(138.43 181.64) scale(0.71 0.71)" xlink:href="#New_Symbol_1"/><use width="21.55" height="21.55" transform="translate(159.66 186.88) scale(0.71 0.71)" xlink:href="#New_Symbol_1"/><use width="21.55" height="21.55" transform="translate(173.08 194.99) scale(0.71 0.71)" xlink:href="#New_Symbol_1"/><use width="21.55" height="21.55" transform="translate(191.09 205.48) scale(0.71 0.71)" xlink:href="#New_Symbol_1"/><use width="21.55" height="21.55" transform="translate(210.35 204.56) scale(0.71 0.71)" xlink:href="#New_Symbol_1"/><use width="21.55" height="21.55" transform="translate(235.36 199.32) scale(0.71 0.71)" xlink:href="#New_Symbol_1"/><use width="21.55" height="21.55" transform="translate(242.14 165.75) scale(0.71 0.71)" xlink:href="#New_Symbol_1"/><use width="21.55" height="21.55" transform="translate(247.41 127.04) scale(0.71 0.71)" xlink:href="#New_Symbol_2"/><use width="21.55" height="21.55" transform="translate(255.32 95.26) scale(0.71 0.71)" xlink:href="#New_Symbol_2"/><use width="21.55" height="21.55" transform="translate(248.64 75.83) scale(0.71 0.71)" xlink:href="#New_Symbol_2"/><use width="21.55" height="21.55" transform="translate(209.26 81.45) scale(0.71 0.71)" xlink:href="#New_Symbol_2"/><use width="21.55" height="21.55" transform="translate(198.4 70.88) scale(0.71 0.71)" xlink:href="#New_Symbol_2"/><use width="21.55" height="21.55" transform="translate(190.93 54.22) scale(0.71 0.71)" xlink:href="#New_Symbol_2"/><use width="21.55" height="21.55" transform="translate(157.13 61.24) scale(0.71 0.71)" xlink:href="#New_Symbol_2"/><use width="21.55" height="21.55" transform="translate(142.66 81.83) scale(0.71 0.71)" xlink:href="#New_Symbol_2"/><use width="21.55" height="21.55" transform="translate(117.3 77.88) scale(0.71 0.71)" xlink:href="#New_Symbol_2"/><use width="21.55" height="21.55" transform="translate(123.01 104.17) scale(0.71 0.71)" xlink:href="#New_Symbol_2"/><use width="21.55" height="21.55" transform="translate(100.87 117.62) scale(0.71 0.71)" xlink:href="#New_Symbol_2"/><use width="21.55" height="21.55" transform="translate(112.86 137.16) scale(0.71 0.71)" xlink:href="#New_Symbol_2"/><use width="21.55" height="21.55" transform="translate(99.11 165.12) scale(0.71 0.71)" xlink:href="#New_Symbol_2"/><use width="21.55" height="21.55" transform="translate(122.99 181.14) scale(0.71 0.71)" xlink:href="#New_Symbol_2"/><use width="21.55" height="21.55" transform="translate(128.75 205.68) scale(0.71 0.71)" xlink:href="#New_Symbol_2"/><use width="21.55" height="21.55" transform="translate(167.78 197.4) scale(0.71 0.71)" xlink:href="#New_Symbol_2"/><use width="21.55" height="21.55" transform="translate(189.14 219.22) scale(0.71 0.71)" xlink:href="#New_Symbol_2"/><use width="21.55" height="21.55" transform="translate(222.47 201.77) scale(0.71 0.71)" xlink:href="#New_Symbol_2"/><use width="21.55" height="21.55" transform="translate(244.8 201.23) scale(0.71 0.71)" xlink:href="#New_Symbol_2"/><use width="21.55" height="21.55" transform="translate(233.73 173.26) scale(0.71 0.71)" xlink:href="#New_Symbol_2"/><use width="21.55" height="21.55" transform="translate(256.29 150.62) scale(0.71 0.71)" xlink:href="#New_Symbol_2"/><use width="21.55" height="21.55" transform="translate(87.49 142.28) scale(0.71 0.71)" xlink:href="#New_Symbol_3"/><use width="21.55" height="21.55" transform="translate(105.89 161.61) scale(0.71 0.71)" xlink:href="#New_Symbol_3"/><use width="21.55" height="21.55" transform="translate(127.83 168.85) scale(0.71 0.71)" xlink:href="#New_Symbol_3"/><use width="21.55" height="21.55" transform="translate(103.92 184.08) scale(0.71 0.71)" xlink:href="#New_Symbol_3"/><use width="21.55" height="21.55" transform="translate(164.77 218.34) scale(0.71 0.71)" xlink:href="#New_Symbol_3"/><use width="21.55" height="21.55" transform="translate(200.45 205.12) scale(0.71 0.71)" xlink:href="#New_Symbol_3"/><use width="21.55" height="21.55" transform="translate(218.88 186.54) scale(0.71 0.71)" xlink:href="#New_Symbol_3"/><use width="21.55" height="21.55" transform="translate(255.23 173.93) scale(0.71 0.71)" xlink:href="#New_Symbol_3"/><use width="21.55" height="21.55" transform="translate(244.94 145.58) scale(0.71 0.71)" xlink:href="#New_Symbol_3"/><use width="21.55" height="21.55" transform="translate(247.17 111.39) scale(0.71 0.71)" xlink:href="#New_Symbol_3"/><use width="21.55" height="21.55" transform="translate(239.37 85.47) scale(0.71 0.71)" xlink:href="#New_Symbol_3"/><use width="21.55" height="21.55" transform="translate(227.39 52.55) scale(0.71 0.71)" xlink:href="#New_Symbol_3"/><use width="21.55" height="21.55" transform="translate(169.3 78.59) scale(0.71 0.71)" xlink:href="#New_Symbol_3"/><use width="21.55" height="21.55" transform="translate(140.89 97.48) scale(0.71 0.71)" xlink:href="#New_Symbol_3"/><use width="21.55" height="21.55" transform="translate(101.3 88.66) scale(0.71 0.71)" xlink:href="#New_Symbol_3"/><use width="21.55" height="21.55" transform="translate(112.77 114.74) scale(0.71 0.71)" xlink:href="#New_Symbol_3"/><use width="21.55" height="21.55" transform="translate(95.98 137.48) scale(0.71 0.71)" xlink:href="#New_Symbol_3"/><use width="21.55" height="21.55" transform="translate(212.85 61.62) scale(0.71 0.71)" xlink:href="#New_Symbol_3"/><use width="21.55" height="21.55" transform="translate(232.96 62.49) scale(0.71 0.71)" xlink:href="#New_Symbol"/></g></g></g></svg>