<svg xmlns="http://www.w3.org/2000/svg" xmlns:xlink="http://www.w3.org/1999/xlink" viewBox="0 0 196.74 181.91"><defs><symbol id="New_Symbol" data-name="New Symbol" viewBox="0 0 21.55 21.55"><circle cx="10.77" cy="10.77" r="10.77" style="fill:#e33e2b;opacity:0.8"/></symbol><symbol id="New_Symbol_1" data-name="New Symbol 1" viewBox="0 0 21.55 21.55"><circle cx="10.77" cy="10.77" r="10.77" style="fill:#f0b501;opacity:0.8"/></symbol><symbol id="New_Symbol_2" data-name="New Symbol 2" viewBox="0 0 21.55 21.55"><circle cx="10.77" cy="10.77" r="10.77" style="fill:#2ba24c;opacity:0.8"/></symbol><symbol id="New_Symbol_3" data-name="New Symbol 3" viewBox="0 0 21.55 21.55"><circle cx="10.77" cy="10.77" r="10.77" style="fill:#3b7ded;opacity:0.8"/></symbol></defs><g id="Layer_2" data-name="Layer 2"><g id="final"><g id="FINAL-2" data-name="FINAL"><use width="21.55" height="21.55" transform="translate(167.34 130.78) scale(0.71 0.71)" xlink:href="#New_Symbol"/><use width="21.55" height="21.55" transform="translate(160.58 103.97) scale(0.71 0.71)" xlink:href="#New_Symbol"/><use width="21.55" height="21.55" transform="translate(169.67 82.31) scale(0.71 0.71)" xlink:href="#New_Symbol"/><use width="21.55" height="21.55" transform="translate(176.5 59.1) scale(0.71 0.71)" xlink:href="#New_Symbol"/><use width="21.55" height="21.55" transform="translate(157.24 39.81) scale(0.71 0.71)" xlink:href="#New_Symbol"/><use width="21.55" height="21.55" transform="translate(133.71 30.03) scale(0.71 0.71)" xlink:href="#New_Symbol"/><use width="21.55" height="21.55" transform="translate(103.33 18.61) scale(0.71 0.71)" xlink:href="#New_Symbol"/><use width="21.55" height="21.55" transform="translate(80.88 15.12) scale(0.71 0.71)" xlink:href="#New_Symbol"/><use width="21.55" height="21.55" transform="translate(58.94 20.43) scale(0.71 0.71)" xlink:href="#New_Symbol"/><use width="21.55" height="21.55" transform="translate(44.19 35.86) scale(0.71 0.71)" xlink:href="#New_Symbol"/><use width="21.55" height="21.55" transform="translate(34.75 69.31) scale(0.71 0.71)" xlink:href="#New_Symbol"/><use width="21.55" height="21.55" transform="translate(26.24 96.97) scale(0.71 0.71)" xlink:href="#New_Symbol"/><use width="21.55" height="21.55" transform="translate(36.37 135.37) scale(0.71 0.71)" xlink:href="#New_Symbol"/><use width="21.55" height="21.55" transform="translate(64.17 156.12) scale(0.71 0.71)" xlink:href="#New_Symbol"/><use width="21.55" height="21.55" transform="translate(96.63 160.59) scale(0.71 0.71)" xlink:href="#New_Symbol"/><use width="21.55" height="21.55" transform="translate(141.94 159) scale(0.71 0.71)" xlink:href="#New_Symbol"/><use width="21.55" height="21.55" transform="translate(181.5 98.26) scale(0.71 0.71)" xlink:href="#New_Symbol"/><use width="21.55" height="21.55" transform="translate(148.69 45.67) scale(0.71 0.71)" xlink:href="#New_Symbol"/><use width="21.55" height="21.55" transform="translate(59.22 9.71) scale(0.71 0.71)" xlink:href="#New_Symbol"/><use width="21.55" height="21.55" transform="translate(27.02 42.19) scale(0.71 0.71)" xlink:href="#New_Symbol"/><use width="21.55" height="21.55" transform="translate(45.31 121.83) scale(0.71 0.71)" xlink:href="#New_Symbol"/><use width="21.55" height="21.55" transform="translate(58.37 146.12) scale(0.71 0.71)" xlink:href="#New_Symbol"/><use width="21.55" height="21.55" transform="translate(159.17 127.92) scale(0.71 0.71)" xlink:href="#New_Symbol_1"/><use width="21.55" height="21.55" transform="translate(175.29 104.64) scale(0.71 0.71)" xlink:href="#New_Symbol_1"/><use width="21.55" height="21.55" transform="translate(177.02 78.63) scale(0.71 0.71)" xlink:href="#New_Symbol_1"/><use width="21.55" height="21.55" transform="translate(170.76 62.64) scale(0.71 0.71)" xlink:href="#New_Symbol_1"/><use width="21.55" height="21.55" transform="translate(173.51 46.47) scale(0.71 0.71)" xlink:href="#New_Symbol_1"/><use width="21.55" height="21.55" transform="translate(138.97 43.91) scale(0.71 0.71)" xlink:href="#New_Symbol_1"/><use width="21.55" height="21.55" transform="translate(131.68 24.89) scale(0.71 0.71)" xlink:href="#New_Symbol_1"/><use width="21.55" height="21.55" transform="translate(112.7 7.24) scale(0.71 0.71)" xlink:href="#New_Symbol_1"/><use width="21.55" height="21.55" transform="translate(83.95 9.1) scale(0.71 0.71)" xlink:href="#New_Symbol_1"/><use width="21.55" height="21.55" transform="translate(45.55 19.16) scale(0.71 0.71)" xlink:href="#New_Symbol_1"/><use width="21.55" height="21.55" transform="translate(36.2 42.79) scale(0.71 0.71)" xlink:href="#New_Symbol_1"/><use width="21.55" height="21.55" transform="translate(20.62 58.16) scale(0.71 0.71)" xlink:href="#New_Symbol_1"/><use width="21.55" height="21.55" transform="translate(33.22 85.15) scale(0.71 0.71)" xlink:href="#New_Symbol_1"/><use width="21.55" height="21.55" transform="translate(30.78 112.36) scale(0.71 0.71)" xlink:href="#New_Symbol_1"/><use width="21.55" height="21.55" transform="translate(50.93 129.09) scale(0.71 0.71)" xlink:href="#New_Symbol_1"/><use width="21.55" height="21.55" transform="translate(72.17 134.33) scale(0.71 0.71)" xlink:href="#New_Symbol_1"/><use width="21.55" height="21.55" transform="translate(85.59 142.44) scale(0.71 0.71)" xlink:href="#New_Symbol_1"/><use width="21.55" height="21.55" transform="translate(103.6 152.93) scale(0.71 0.71)" xlink:href="#New_Symbol_1"/><use width="21.55" height="21.55" transform="translate(122.86 152.01) scale(0.71 0.71)" xlink:href="#New_Symbol_1"/><use width="21.55" height="21.55" transform="translate(147.86 146.77) scale(0.71 0.71)" xlink:href="#New_Symbol_1"/><use width="21.55" height="21.55" transform="translate(154.65 113.2) scale(0.71 0.71)" xlink:href="#New_Symbol_1"/><use width="21.55" height="21.55" transform="translate(159.92 74.49) scale(0.71 0.71)" xlink:href="#New_Symbol_2"/><use width="21.55" height="21.55" transform="translate(167.82 42.71) scale(0.71 0.71)" xlink:href="#New_Symbol_2"/><use width="21.55" height="21.55" transform="translate(161.14 23.28) scale(0.71 0.71)" xlink:href="#New_Symbol_2"/><use width="21.55" height="21.55" transform="translate(121.76 28.9) scale(0.71 0.71)" xlink:href="#New_Symbol_2"/><use width="21.55" height="21.55" transform="translate(110.91 18.33) scale(0.71 0.71)" xlink:href="#New_Symbol_2"/><use width="21.55" height="21.55" transform="translate(103.44 1.67) scale(0.71 0.71)" xlink:href="#New_Symbol_2"/><use width="21.55" height="21.55" transform="translate(69.64 8.69) scale(0.71 0.71)" xlink:href="#New_Symbol_2"/><use width="21.55" height="21.55" transform="translate(55.17 29.28) scale(0.71 0.71)" xlink:href="#New_Symbol_2"/><use width="21.55" height="21.55" transform="translate(29.81 25.33) scale(0.71 0.71)" xlink:href="#New_Symbol_2"/><use width="21.55" height="21.55" transform="translate(35.52 51.62) scale(0.71 0.71)" xlink:href="#New_Symbol_2"/><use width="21.55" height="21.55" transform="translate(13.38 65.07) scale(0.71 0.71)" xlink:href="#New_Symbol_2"/><use width="21.55" height="21.55" transform="translate(25.37 84.61) scale(0.71 0.71)" xlink:href="#New_Symbol_2"/><use width="21.55" height="21.55" transform="translate(11.61 112.57) scale(0.71 0.71)" xlink:href="#New_Symbol_2"/><use width="21.55" height="21.55" transform="translate(35.49 128.59) scale(0.71 0.71)" xlink:href="#New_Symbol_2"/><use width="21.55" height="21.55" transform="translate(41.25 153.13) scale(0.71 0.71)" xlink:href="#New_Symbol_2"/><use width="21.55" height="21.55" transform="translate(80.29 144.85) scale(0.71 0.71)" xlink:href="#New_Symbol_2"/><use width="21.55" height="21.55" transform="translate(101.64 166.67) scale(0.71 0.71)" xlink:href="#New_Symbol_2"/><use width="21.55" height="21.55" transform="translate(134.97 149.22) scale(0.71 0.71)" xlink:href="#New_Symbol_2"/><use width="21.55" height="21.55" transform="translate(157.3 148.68) scale(0.71 0.71)" xlink:href="#New_Symbol_2"/><use width="21.55" height="21.55" transform="translate(146.24 120.71) scale(0.71 0.71)" xlink:href="#New_Symbol_2"/><use width="21.55" height="21.55" transform="translate(168.8 98.07) scale(0.71 0.71)" xlink:href="#New_Symbol_2"/><use width="21.55" height="21.55" transform="translate(0 89.73) scale(0.71 0.71)" xlink:href="#New_Symbol_3"/><use width="21.55" height="21.55" transform="translate(18.39 109.06) scale(0.71 0.71)" xlink:href="#New_Symbol_3"/><use width="21.55" height="21.55" transform="translate(40.34 116.3) scale(0.71 0.71)" xlink:href="#New_Symbol_3"/><use width="21.55" height="21.55" transform="translate(16.42 131.53) scale(0.71 0.71)" xlink:href="#New_Symbol_3"/><use width="21.55" height="21.55" transform="translate(77.28 165.79) scale(0.71 0.71)" xlink:href="#New_Symbol_3"/><use width="21.55" height="21.55" transform="translate(112.95 152.57) scale(0.71 0.71)" xlink:href="#New_Symbol_3"/><use width="21.55" height="21.55" transform="translate(131.39 133.99) scale(0.71 0.71)" xlink:href="#New_Symbol_3"/><use width="21.55" height="21.55" transform="translate(167.74 121.38) scale(0.71 0.71)" xlink:href="#New_Symbol_3"/><use width="21.55" height="21.55" transform="translate(157.45 93.03) scale(0.71 0.71)" xlink:href="#New_Symbol_3"/><use width="21.55" height="21.55" transform="translate(159.68 58.84) scale(0.71 0.71)" xlink:href="#New_Symbol_3"/><use width="21.55" height="21.55" transform="translate(151.88 32.92) scale(0.71 0.71)" xlink:href="#New_Symbol_3"/><use width="21.55" height="21.55" transform="translate(139.9) scale(0.71 0.71)" xlink:href="#New_Symbol_3"/><use width="21.55" height="21.55" transform="translate(81.81 26.04) scale(0.71 0.71)" xlink:href="#New_Symbol_3"/><use width="21.55" height="21.55" transform="translate(53.4 44.93) scale(0.71 0.71)" xlink:href="#New_Symbol_3"/><use width="21.55" height="21.55" transform="translate(13.8 36.11) scale(0.71 0.71)" xlink:href="#New_Symbol_3"/><use width="21.55" height="21.55" transform="translate(25.28 62.19) scale(0.71 0.71)" xlink:href="#New_Symbol_3"/><use width="21.55" height="21.55" transform="translate(8.48 84.93) scale(0.71 0.71)" xlink:href="#New_Symbol_3"/><use width="21.55" height="21.55" transform="translate(125.35 9.07) scale(0.71 0.71)" xlink:href="#New_Symbol_3"/><use width="21.55" height="21.55" transform="translate(145.46 9.94) scale(0.71 0.71)" xlink:href="#New_Symbol"/></g></g></g></svg>